# xmcd CD database file
#
# Track frame offsets:
#	150
#	7962
#	21252
#	36906
#	54511
#	66683
#	76320
#	90684
#	104474
#	120846
#	138935
#	157952
#	180477
#
# Disc length: 2424 seconds
#
# Revision: 0
# Processed by: cddbd v1.4PL0 Copyright (c) Steve Scherf et al.
# Submitted via: Feurio! 1.63 - http://www.feurio.com
#
DISCID=9f09760d
DTITLE=Willy Nelson - Spirit
DYEAR=1900
DGENRE=
TTITLE0=Matador
TTITLE1=She Is Gone
TTITLE2=Your Memory Won't Die In My Grave
TTITLE3=I'm Not Trying To Forget You Anymore
TTITLE4=Too Sick To Pray
TTITLE5=Mariachi
TTITLE6=I'm Waiting Forever
TTITLE7=We Don't Run
TTITLE8=I Guess I've Come To Live Here In Your Eyes
TTITLE9=It's A Dream Come True
TTITLE10=I Thought About You, Lord
TTITLE11=Spirit Of E9
TTITLE12=Matador
EXTD=
EXTT0=
EXTT1=
EXTT2=
EXTT3=
EXTT4=
EXTT5=
EXTT6=
EXTT7=
EXTT8=
EXTT9=
EXTT10=
EXTT11=
EXTT12=
PLAYORDER=
